<svg xmlns="http://www.w3.org/2000/svg" viewBox="0 0 7.51 13.51"><defs><style>.a{fill:none;}.b,.c{stroke:none;}.c{fill:#2e3137;}</style></defs><g transform="translate(-50 -227)"><g class="a" transform="translate(-1541.311 244.689)"><path class="b" d="M1597.541-4.4l-5.929-5.93a.742.742,0,0,1-.081-.07.747.747,0,0,1-.219-.536.747.747,0,0,1,.219-.535.751.751,0,0,1,.078-.068l5.932-5.932a.751.751,0,0,1,1.061,0,.751.751,0,0,1,0,1.061l-5.476,5.475,5.476,5.475a.751.751,0,0,1,0,1.061.749.749,0,0,1-.531.219A.749.749,0,0,1,1597.541-4.4Z"/><path class="c" d="M 1598.071044921875 -4.178922176361084 C 1597.879150390625 -4.178922176361084 1597.687255859375 -4.252052307128906 1597.54052734375 -4.39830207824707 L 1591.611328125 -10.32845211029053 C 1591.5830078125 -10.34960174560547 1591.556030273438 -10.3729419708252 1591.530395507812 -10.39860248565674 C 1591.382690429688 -10.5462121963501 1591.309692382812 -10.74034214019775 1591.31103515625 -10.93416213989258 C 1591.309692382812 -11.12786197662354 1591.382690429688 -11.32199192047119 1591.530395507812 -11.46960258483887 C 1591.55517578125 -11.49447250366211 1591.581298828125 -11.51720237731934 1591.608520507812 -11.53786182403564 L 1597.54052734375 -17.46990203857422 C 1597.687255859375 -17.61615180969238 1597.879150390625 -17.68927764892578 1598.071166992188 -17.68927764892578 C 1598.263061523438 -17.68927764892578 1598.454956054688 -17.61615180969238 1598.601684570312 -17.46990203857422 C 1598.894165039062 -17.1765022277832 1598.894165039062 -16.70220184326172 1598.601684570312 -16.4088020324707 L 1593.126098632812 -10.93410205841064 L 1598.601684570312 -5.459402084350586 C 1598.894165039062 -5.16600227355957 1598.894165039062 -4.691701889038086 1598.601684570312 -4.39830207824707 C 1598.454956054688 -4.252052307128906 1598.263061523438 -4.178922176361084 1598.071044921875 -4.178922176361084 Z"/></g></g></svg>